<svg width="316" height="424" viewBox="0 0 316 424" fill="none" xmlns="http://www.w3.org/2000/svg">
<path d="M98.6315 233.151C114.415 233.151 112.486 218.883 112.486 218.883H131.602C131.602 230.855 126.473 246.941 100.736 244.631C89.1465 243.591 84.1116 235.594 84.307 226.879C84.3447 225.198 85.8052 223.967 87.4871 223.967C88.4357 223.967 89.2378 224.689 89.481 225.606C90.1815 228.247 92.3306 233.151 98.6315 233.151Z" fill="url(#paint0_linear_748_400)"/>
<path d="M102.642 166.194C102.047 139.28 124.279 118.36 151.199 118.36C175.928 118.36 197.148 136.067 203.786 159.888C210.208 182.935 219.961 212.399 233.596 239.771C246.634 265.944 231.251 308.294 202.237 311.925L178.935 314.841C169.453 316.028 159.826 314.727 151 311.066L143.696 308.037C137.704 305.552 132.223 301.832 128.734 296.363C108.706 264.97 103.553 207.372 102.642 166.194Z" fill="url(#paint1_linear_748_400)"/>
<g opacity="0.5" filter="url(#filter0_f_748_400)">
<ellipse cx="196.835" cy="336.472" rx="33.4684" ry="2.43407" fill="url(#paint2_linear_748_400)"/>
</g>
<path d="M148.755 244.167C164.539 244.167 162.61 229.899 162.61 229.899H181.726C181.726 241.871 176.597 257.957 150.86 255.647C139.27 254.607 134.235 246.61 134.431 237.895C134.469 236.214 135.929 234.983 137.611 234.983C138.56 234.983 139.362 235.705 139.605 236.622C140.305 239.263 142.455 244.167 148.755 244.167Z" fill="url(#paint3_linear_748_400)"/>
<g filter="url(#filter1_d_748_400)">
<g filter="url(#filter2_ii_748_400)">
<path d="M109.13 167.036C108.428 155.866 113.24 145.061 122.012 138.11C133.391 129.094 148.821 127.107 162.112 132.946L163.336 133.484C178.039 139.943 186.71 155.337 184.612 171.259L181.485 194.989C179.154 212.681 164.072 225.906 146.227 225.906C127.453 225.906 111.912 211.311 110.735 192.574L109.13 167.036Z" fill="url(#paint4_linear_748_400)"/>
</g>
<g opacity="0.12" filter="url(#filter3_f_748_400)">
<path d="M111.199 197.541C110.798 191.869 114.84 186.848 120.467 186.029L132.909 184.216C135.574 183.828 138.28 183.828 140.945 184.216L153.336 186.021C158.986 186.844 163.036 191.896 162.611 197.59C161.924 206.802 154.249 213.926 145.011 213.926H128.784C119.53 213.926 111.852 206.771 111.199 197.541Z" fill="url(#paint5_linear_748_400)"/>
</g>
<g filter="url(#filter4_dd_748_400)">
<rect x="131.419" y="197.952" width="5.5081" height="13.7703" rx="2.75405" fill="url(#paint6_linear_748_400)"/>
</g>
</g>
<g filter="url(#filter5_dd_748_400)">
<ellipse cx="120.678" cy="172.753" rx="8.53756" ry="8.39986" fill="url(#paint7_linear_748_400)"/>
</g>
<ellipse cx="120.678" cy="185.146" rx="3.85567" ry="2.06554" fill="url(#paint8_linear_748_400)"/>
<path d="M118.737 151.37C119.291 148.821 121.548 147.002 124.157 147.002C124.517 147.002 124.809 147.295 124.809 147.655V158.891C124.809 160.995 123.104 162.7 120.999 162.7C118.569 162.7 116.76 160.456 117.277 158.081L118.737 151.37Z" fill="url(#paint9_linear_748_400)"/>
<path d="M118.404 201.902C118.862 204.706 121.285 206.765 124.127 206.765C124.504 206.765 124.809 206.46 124.809 206.083V192.786C124.809 190.62 123.053 188.864 120.887 188.864C118.468 188.864 116.626 191.032 117.016 193.419L118.404 201.902Z" fill="url(#paint10_linear_748_400)"/>
<g filter="url(#filter6_dd_748_400)">
<circle cx="9.20757" cy="9.20757" r="9.20757" transform="matrix(-1 -8.74228e-08 -8.74228e-08 1 163.167 163.732)" fill="url(#paint11_linear_748_400)"/>
</g>
<ellipse cx="4.20918" cy="2.23613" rx="4.20918" ry="2.23613" transform="matrix(-1 -8.74228e-08 -8.74228e-08 1 158.169 184.252)" fill="url(#paint12_linear_748_400)"/>
<path d="M156.027 149.768C155.434 147.017 153.003 145.054 150.189 145.054C149.801 145.054 149.487 145.368 149.487 145.756L149.487 158.04C149.487 160.312 151.329 162.153 153.601 162.153C156.221 162.153 158.174 159.736 157.622 157.174L156.027 149.768Z" fill="url(#paint13_linear_748_400)"/>
<path d="M156.389 204.523C155.898 207.547 153.286 209.77 150.222 209.77C149.816 209.77 149.487 209.441 149.487 209.035L149.487 194.535C149.487 192.198 151.382 190.302 153.72 190.302C156.328 190.302 158.316 192.638 157.898 195.213L156.389 204.523Z" fill="url(#paint14_linear_748_400)"/>
<defs>
<filter id="filter0_f_748_400" x="78.3615" y="249.033" width="236.947" height="174.878" filterUnits="userSpaceOnUse" color-interpolation-filters="sRGB">
<feFlood flood-opacity="0" result="BackgroundImageFix"/>
<feBlend mode="normal" in="SourceGraphic" in2="BackgroundImageFix" result="shape"/>
<feGaussianBlur stdDeviation="42.5025" result="effect1_foregroundBlur_748_400"/>
</filter>
<filter id="filter1_d_748_400" x="0.676445" y="-0.00193405" width="292.632" height="313.042" filterUnits="userSpaceOnUse" color-interpolation-filters="sRGB">
<feFlood flood-opacity="0" result="BackgroundImageFix"/>
<feColorMatrix in="SourceAlpha" type="matrix" values="0 0 0 0 0 0 0 0 0 0 0 0 0 0 0 0 0 0 127 0" result="hardAlpha"/>
<feOffset dy="-21.2522"/>
<feGaussianBlur stdDeviation="54.193"/>
<feColorMatrix type="matrix" values="0 0 0 0 1 0 0 0 0 0.820833 0 0 0 0 0.992833 0 0 0 0.35 0"/>
<feBlend mode="normal" in2="BackgroundImageFix" result="effect1_dropShadow_748_400"/>
<feBlend mode="normal" in="SourceGraphic" in2="effect1_dropShadow_748_400" result="shape"/>
</filter>
<filter id="filter2_ii_748_400" x="62.3077" y="120.073" width="122.615" height="120.71" filterUnits="userSpaceOnUse" color-interpolation-filters="sRGB">
<feFlood flood-opacity="0" result="BackgroundImageFix"/>
<feBlend mode="normal" in="SourceGraphic" in2="BackgroundImageFix" result="shape"/>
<feColorMatrix in="SourceAlpha" type="matrix" values="0 0 0 0 0 0 0 0 0 0 0 0 0 0 0 0 0 0 127 0" result="hardAlpha"/>
<feOffset dy="-9.56348"/>
<feGaussianBlur stdDeviation="9.56348"/>
<feComposite in2="hardAlpha" operator="arithmetic" k2="-1" k3="1"/>
<feColorMatrix type="matrix" values="0 0 0 0 0.379167 0 0 0 0 0.102691 0 0 0 0 0.351519 0 0 0 0.31 0"/>
<feBlend mode="normal" in2="shape" result="effect1_innerShadow_748_400"/>
<feColorMatrix in="SourceAlpha" type="matrix" values="0 0 0 0 0 0 0 0 0 0 0 0 0 0 0 0 0 0 127 0" result="hardAlpha"/>
<feOffset dx="-46.7548" dy="14.8765"/>
<feGaussianBlur stdDeviation="42.5043"/>
<feComposite in2="hardAlpha" operator="arithmetic" k2="-1" k3="1"/>
<feColorMatrix type="matrix" values="0 0 0 0 0.291279 0 0 0 0 0.061684 0 0 0 0 0.779167 0 0 0 0.28 0"/>
<feBlend mode="normal" in2="effect1_innerShadow_748_400" result="effect2_innerShadow_748_400"/>
</filter>
<filter id="filter3_f_748_400" x="29.4026" y="102.156" width="215.009" height="193.539" filterUnits="userSpaceOnUse" color-interpolation-filters="sRGB">
<feFlood flood-opacity="0" result="BackgroundImageFix"/>
<feBlend mode="normal" in="SourceGraphic" in2="BackgroundImageFix" result="shape"/>
<feGaussianBlur stdDeviation="40.8848" result="effect1_foregroundBlur_748_400"/>
</filter>
<filter id="filter4_dd_748_400" x="119.73" y="189.064" width="28.8855" height="40.7234" filterUnits="userSpaceOnUse" color-interpolation-filters="sRGB">
<feFlood flood-opacity="0" result="BackgroundImageFix"/>
<feColorMatrix in="SourceAlpha" type="matrix" values="0 0 0 0 0 0 0 0 0 0 0 0 0 0 0 0 0 0 127 0" result="hardAlpha"/>
<feOffset dy="6.37565"/>
<feGaussianBlur stdDeviation="5.84435"/>
<feColorMatrix type="matrix" values="0 0 0 0 0.599108 0 0 0 0 0.279792 0 0 0 0 0.85 0 0 0 0.35 0"/>
<feBlend mode="normal" in2="BackgroundImageFix" result="effect1_dropShadow_748_400"/>
<feColorMatrix in="SourceAlpha" type="matrix" values="0 0 0 0 0 0 0 0 0 0 0 0 0 0 0 0 0 0 127 0" result="hardAlpha"/>
<feOffset dx="-2.12522" dy="-1.06261"/>
<feGaussianBlur stdDeviation="3.91311"/>
<feColorMatrix type="matrix" values="0 0 0 0 1 0 0 0 0 1 0 0 0 0 1 0 0 0 0.2 0"/>
<feBlend mode="normal" in2="effect1_dropShadow_748_400" result="effect2_dropShadow_748_400"/>
<feBlend mode="normal" in="SourceGraphic" in2="effect2_dropShadow_748_400" result="shape"/>
</filter>
<filter id="filter5_dd_748_400" x="99.7222" y="158.072" width="34.7113" height="37.2906" filterUnits="userSpaceOnUse" color-interpolation-filters="sRGB">
<feFlood flood-opacity="0" result="BackgroundImageFix"/>
<feColorMatrix in="SourceAlpha" type="matrix" values="0 0 0 0 0 0 0 0 0 0 0 0 0 0 0 0 0 0 127 0" result="hardAlpha"/>
<feOffset dx="-5.31304" dy="7.1052"/>
<feGaussianBlur stdDeviation="3.5526"/>
<feColorMatrix type="matrix" values="0 0 0 0 0.603458 0 0 0 0 0.390104 0 0 0 0 0.875 0 0 0 0.32 0"/>
<feBlend mode="normal" in2="BackgroundImageFix" result="effect1_dropShadow_748_400"/>
<feColorMatrix in="SourceAlpha" type="matrix" values="0 0 0 0 0 0 0 0 0 0 0 0 0 0 0 0 0 0 127 0" result="hardAlpha"/>
<feOffset dx="3.18783" dy="-4.25043"/>
<feGaussianBlur stdDeviation="1.01503"/>
<feColorMatrix type="matrix" values="0 0 0 0 1 0 0 0 0 1 0 0 0 0 1 0 0 0 0.4 0"/>
<feBlend mode="normal" in2="effect1_dropShadow_748_400" result="effect2_dropShadow_748_400"/>
<feBlend mode="normal" in="SourceGraphic" in2="effect2_dropShadow_748_400" result="shape"/>
</filter>
<filter id="filter6_dd_748_400" x="133.396" y="159.672" width="33.9261" height="37.0187" filterUnits="userSpaceOnUse" color-interpolation-filters="sRGB">
<feFlood flood-opacity="0" result="BackgroundImageFix"/>
<feColorMatrix in="SourceAlpha" type="matrix" values="0 0 0 0 0 0 0 0 0 0 0 0 0 0 0 0 0 0 127 0" result="hardAlpha"/>
<feOffset dx="-4.25043" dy="7.43826"/>
<feGaussianBlur stdDeviation="3.5526"/>
<feColorMatrix type="matrix" values="0 0 0 0 0.603458 0 0 0 0 0.390104 0 0 0 0 0.875 0 0 0 0.32 0"/>
<feBlend mode="normal" in2="BackgroundImageFix" result="effect1_dropShadow_748_400"/>
<feColorMatrix in="SourceAlpha" type="matrix" values="0 0 0 0 0 0 0 0 0 0 0 0 0 0 0 0 0 0 127 0" result="hardAlpha"/>
<feOffset dx="2.12522" dy="-2.03006"/>
<feGaussianBlur stdDeviation="1.01503"/>
<feColorMatrix type="matrix" values="0 0 0 0 1 0 0 0 0 1 0 0 0 0 1 0 0 0 0.4 0"/>
<feBlend mode="normal" in2="effect1_dropShadow_748_400" result="effect2_dropShadow_748_400"/>
<feBlend mode="normal" in="SourceGraphic" in2="effect2_dropShadow_748_400" result="shape"/>
</filter>
<linearGradient id="paint0_linear_748_400" x1="97.303" y1="228.385" x2="111.585" y2="228.385" gradientUnits="userSpaceOnUse">
<stop stop-color="#0D0038" stop-opacity="0.37"/>
<stop offset="1" stop-opacity="0"/>
</linearGradient>
<linearGradient id="paint1_linear_748_400" x1="162.678" y1="132.957" x2="158.571" y2="345.105" gradientUnits="userSpaceOnUse">
<stop stop-color="#0D0038"/>
<stop offset="1" stop-opacity="0.03"/>
</linearGradient>
<linearGradient id="paint2_linear_748_400" x1="196.835" y1="334.038" x2="196.835" y2="338.906" gradientUnits="userSpaceOnUse">
<stop/>
<stop offset="1" stop-color="#151433" stop-opacity="0.87"/>
<stop offset="1" stop-color="#251F27" stop-opacity="0.87"/>
</linearGradient>
<linearGradient id="paint3_linear_748_400" x1="138.813" y1="242.773" x2="166.984" y2="229.778" gradientUnits="userSpaceOnUse">
<stop stop-color="#0D0038" stop-opacity="0.37"/>
<stop offset="0.626611" stop-color="#050015" stop-opacity="0.08"/>
<stop offset="1" stop-opacity="0"/>
</linearGradient>
<linearGradient id="paint4_linear_748_400" x1="148.081" y1="123.455" x2="148.081" y2="225.906" gradientUnits="userSpaceOnUse">
<stop stop-color="white"/>
<stop offset="0.0698237" stop-color="#F4F0F4" stop-opacity="0.990923"/>
<stop offset="0.942282" stop-color="#C7C5FE" stop-opacity="0.77"/>
<stop offset="1" stop-color="#C4C2FF" stop-opacity="0.81"/>
</linearGradient>
<linearGradient id="paint5_linear_748_400" x1="136.927" y1="183.631" x2="136.927" y2="213.926" gradientUnits="userSpaceOnUse">
<stop stop-color="#5B225C"/>
<stop offset="1" stop-color="#151433" stop-opacity="0.87"/>
<stop offset="1" stop-color="#59266B" stop-opacity="0.87"/>
</linearGradient>
<linearGradient id="paint6_linear_748_400" x1="134.173" y1="198.94" x2="134.186" y2="212.943" gradientUnits="userSpaceOnUse">
<stop stop-color="#261953"/>
<stop offset="1" stop-color="#11082F"/>
</linearGradient>
<linearGradient id="paint7_linear_748_400" x1="120.678" y1="165.558" x2="120.685" y2="182.642" gradientUnits="userSpaceOnUse">
<stop stop-color="#2E1E65"/>
<stop offset="1" stop-color="#11082F"/>
</linearGradient>
<linearGradient id="paint8_linear_748_400" x1="127.305" y1="183.081" x2="113.747" y2="188.214" gradientUnits="userSpaceOnUse">
<stop stop-color="#FE4A23" stop-opacity="0.35"/>
<stop offset="1" stop-color="#FA43B0" stop-opacity="0"/>
</linearGradient>
<linearGradient id="paint9_linear_748_400" x1="120.54" y1="147.002" x2="120.427" y2="165.67" gradientUnits="userSpaceOnUse">
<stop stop-color="#FE4A23" stop-opacity="0.42"/>
<stop offset="1" stop-color="#FA43B0" stop-opacity="0.38"/>
</linearGradient>
<linearGradient id="paint10_linear_748_400" x1="120.54" y1="206.765" x2="120.393" y2="185.478" gradientUnits="userSpaceOnUse">
<stop stop-color="#FE4A23" stop-opacity="0.17"/>
<stop offset="1" stop-color="#FA43B0" stop-opacity="0.48"/>
</linearGradient>
<linearGradient id="paint11_linear_748_400" x1="9.20757" y1="1.32071" x2="9.21484" y2="20.0474" gradientUnits="userSpaceOnUse">
<stop stop-color="#2E1E65"/>
<stop offset="1" stop-color="#11082F"/>
</linearGradient>
<linearGradient id="paint12_linear_748_400" x1="11.4437" y1="-3.99094e-07" x2="-3.32606" y2="5.63894" gradientUnits="userSpaceOnUse">
<stop stop-color="#FE4A23" stop-opacity="0.35"/>
<stop offset="1" stop-color="#FA43B0" stop-opacity="0"/>
</linearGradient>
<linearGradient id="paint13_linear_748_400" x1="154.091" y1="145.054" x2="154.215" y2="165.388" gradientUnits="userSpaceOnUse">
<stop stop-color="#FE4A23" stop-opacity="0.42"/>
<stop offset="1" stop-color="#FA43B0" stop-opacity="0.38"/>
</linearGradient>
<linearGradient id="paint14_linear_748_400" x1="154.091" y1="209.77" x2="154.252" y2="186.62" gradientUnits="userSpaceOnUse">
<stop stop-color="#FE4A23" stop-opacity="0.17"/>
<stop offset="1" stop-color="#FA43B0" stop-opacity="0.48"/>
</linearGradient>
</defs>
</svg>
